<svg xmlns="http://www.w3.org/2000/svg" viewBox="0 0 480 480">
  <rect x="86" y="210" width="308" height="190" rx="28" fill="#fbcfe8"/>
  <rect x="102" y="250" width="276" height="122" rx="18" fill="#f9a8d4"/>
  <circle cx="150" cy="300" r="18" fill="#fef3c7"/>
  <circle cx="240" cy="320" r="18" fill="#fef3c7"/>
  <circle cx="330" cy="300" r="18" fill="#fef3c7"/>
  <rect x="180" y="130" width="18" height="90" rx="8" fill="#93c5fd"/>
  <rect x="231" y="120" width="18" height="100" rx="8" fill="#fde68a"/>
  <rect x="282" y="134" width="18" height="86" rx="8" fill="#6ee7b7"/>
  <path d="M189 126 C175 110 180 90 190 74 C205 92 207 110 189 126" fill="#f43f5e"/>
  <path d="M240 116 C226 100 231 80 241 64 C256 82 258 100 240 116" fill="#fb7185"/>
  <path d="M291 130 C277 114 282 94 292 78 C307 96 309 114 291 130" fill="#f97316"/>
</svg>
